<?xml version="1.0" encoding="UTF-8" standalone="no"?>
<!-- Created with Inkscape (http://www.inkscape.org/) -->

<svg
   width="49.119537mm"
   height="47.997467mm"
   viewBox="0 0 49.119538 47.997469"
   version="1.1"
   id="svg8"
   xmlns="http://www.w3.org/2000/svg"
   xmlns:svg="http://www.w3.org/2000/svg"
   xmlns:rdf="http://www.w3.org/1999/02/22-rdf-syntax-ns#"
   xmlns:cc="http://creativecommons.org/ns#"
   xmlns:dc="http://purl.org/dc/elements/1.1/">
  <title
     id="title81241">Buildah Logo</title>
  <defs
     id="defs2" />
  <metadata
     id="metadata5">
    <rdf:RDF>
      <cc:Work
         rdf:about="">
        <dc:format>image/svg+xml</dc:format>
        <dc:type
           rdf:resource="http://purl.org/dc/dcmitype/StillImage" />
        <dc:title>Buildah Logo</dc:title>
        <dc:date>12 December 2017</dc:date>
        <dc:creator>
          <cc:Agent>
            <dc:title>Máirín Duffy &lt;duffy@redhat.com&gt;</dc:title>
          </cc:Agent>
        </dc:creator>
        <dc:rights>
          <cc:Agent>
            <dc:title>Copyright Red Hat, Inc.</dc:title>
          </cc:Agent>
        </dc:rights>
        <dc:publisher>
          <cc:Agent>
            <dc:title>Red Hat, Inc.</dc:title>
          </cc:Agent>
        </dc:publisher>
        <dc:contributor>
          <cc:Agent>
            <dc:title>Daniel Walsh &lt;dwalsh@redhat.com&gt;, Tom Sweeney &lt;tsweeney@redhat.com&gt;</dc:title>
          </cc:Agent>
        </dc:contributor>
      </cc:Work>
    </rdf:RDF>
  </metadata>
  <g
     id="layer1"
     transform="translate(-652.7238,163.10909)">
    <g
       id="g164054"
       transform="translate(-1.0583333,-251.19926)">
      <g
         style="fill:none;stroke:#000000"
         id="g163990"
         transform="translate(-118.1493,-10.074071)">
        <path
           id="path164069"
           d="m 796.57913,145.63255 -19.29817,-9.23285 -4.82036,-20.8616 13.2871,-16.780616 21.38926,-0.06408 13.38485,16.701146 -4.69887,20.8897 z"
           style="opacity:1;fill:#c9c8c6;fill-opacity:1;stroke:#000000;stroke-width:1.05833;stroke-linecap:round;stroke-linejoin:round;stroke-miterlimit:4;stroke-dasharray:none;stroke-opacity:1" />
        <path
           style="fill:#ffffff;fill-opacity:1;stroke:none;stroke-width:3;stroke-linecap:round;stroke-linejoin:round;stroke-miterlimit:4;stroke-dasharray:none;stroke-dashoffset:6"
           d="m 185.87625,59.397934 c -0.86973,0.217518 -2.57155,-0.134058 -2.52494,1.185647 0.29798,1.534184 0.51469,3.25265 -0.0756,4.733265 -2.59999,1.640261 -6.20252,6.520936 -9.25204,6.909269 l 43.94309,20.562507 42.71289,-19.994542 c 1.02895,-0.723043 2.47728,0.557072 1.54478,0.673163 -3.35476,-0.649977 -5.60495,-3.545794 -7.89139,-5.779104 -1.32714,-1.221465 -1.85144,-3.043527 -1.61413,-4.807152 -0.0512,-1.079531 1.14073,-2.378109 0.11981,-3.2134 -1.25435,-0.06792 -2.90233,-0.67841 -3.75435,0.61017 -3.09923,3.191828 -7.98829,4.311297 -12.1138,2.887779 -1.55682,-0.854291 -3.06748,0.550296 -4.47291,1.067862 -6.87259,3.170321 -14.6714,4.278483 -21.96511,2.268758 -3.27701,-0.820909 -6.47851,-1.975772 -9.37028,-3.683317 -1.34887,-0.137072 -2.59577,0.774552 -3.96402,0.837618 -3.77142,0.600908 -7.75015,-0.913634 -10.36088,-3.74839 -0.24699,-0.267363 -0.5888,-0.503792 -0.96111,-0.510133 z m 32.50205,15.39649 c 1.43219,-0.301225 0.54304,1.655686 0.79688,2.500732 0.0233,4.281784 0.0465,8.563566 0.0697,12.845351 -1.3554,0.293932 -1.91251,-0.210418 -1.5934,-1.590991 v -13.77926 c 0.24226,0.0081 0.48452,0.01611 0.72678,0.02417 z"
           id="path164067"
           transform="matrix(0.26458333,0,0,0.26458333,738.81198,118.53055)" />
        <path
           style="fill:#ffffff;fill-opacity:1;stroke:none;stroke-width:0.79375;stroke-linecap:round;stroke-linejoin:round;stroke-miterlimit:4;stroke-dasharray:none;stroke-dashoffset:6"
           d="m 799.53748,117.44571 c -0.14618,0.005 -0.2976,0.0274 -0.42892,0.009 -2.03273,0.0428 -4.06359,0.0892 -6.0942,0.031 -0.28926,0.11428 -0.24836,0.50228 -0.35967,0.75138 -0.22736,0.98319 -0.0226,1.99923 0.0233,2.99155 0.07,0.84001 0.14093,1.67976 0.21136,2.51974 -1.27629,1.32719 -2.44789,2.78357 -3.30058,4.42195 -0.45703,0.87705 -0.62335,1.88496 -0.49712,2.86391 0.0203,0.83713 0.14089,1.79437 -0.44494,2.48357 -0.2045,0.17656 -0.15243,0.47737 0.0667,0.6134 0.61884,0.5474 1.48745,0.80041 2.29805,0.60306 0.99978,-0.16365 1.63821,-1.03284 2.31768,-1.6955 0.15864,-0.2272 0.63711,-0.45408 0.38551,-0.76998 -0.7675,-1.08459 -1.32972,-2.44507 -1.0697,-3.79098 0.12353,-0.6101 0.64173,-1.02068 1.16892,-1.28675 0.28556,-0.28377 -0.2066,-0.53663 -0.23823,-0.83509 0.0848,-0.56057 0.18974,-1.14181 0.44597,-1.65209 0.25811,-0.42031 0.80937,-0.32417 1.21078,-0.48731 0.63192,-0.22035 1.33566,-0.35672 1.98024,-0.10284 0.44879,0.16718 0.94179,0.19308 1.38079,0.37569 0.40792,0.36381 0.44788,0.95927 0.5917,1.45728 0.0844,0.26471 0.0795,0.56128 -0.12093,0.77463 -0.15859,0.17909 -0.12732,0.47628 0.12661,0.54311 0.63811,0.32204 1.10695,0.97435 1.09296,1.70481 0.0246,1.20969 -0.45512,2.37707 -1.16789,3.33726 -0.10802,0.32476 0.32009,0.49853 0.46974,0.73794 0.65863,0.70094 1.34012,1.50616 2.33267,1.70584 0.88352,0.181 1.86515,-0.13458 2.46135,-0.80718 0.0949,-0.27388 -0.28759,-0.40886 -0.36122,-0.65371 -0.42704,-0.7126 -0.29638,-1.55962 -0.2806,-2.34869 0.15195,-1.12447 -0.16703,-2.25995 -0.74207,-3.22358 -0.84528,-1.44611 -1.89414,-2.76858 -3.0608,-3.96823 0.10988,-1.60331 0.32998,-3.20245 0.33383,-4.81108 -0.019,-0.47827 -0.13757,-0.95613 -0.33435,-1.39061 -0.10996,-0.0918 -0.25069,-0.10579 -0.39687,-0.10129 z m -0.81339,15.38149 c -0.0464,-0.003 -0.0974,0.0351 -0.14366,0.0372 -0.54357,0.44869 -1.198,0.81023 -1.92236,0.80047 -0.71698,0.0539 -1.45907,-0.0997 -2.0345,-0.54881 -0.19522,-0.13527 -0.4874,-0.43793 -0.68678,-0.14831 -0.47322,0.53276 -0.98364,1.03938 -1.4764,1.54771 -0.15575,0.31923 0.32053,0.38287 0.51935,0.50023 1.12198,0.45684 2.32628,0.77692 3.54397,0.77773 1.30395,-0.0584 2.61944,-0.35107 3.78271,-0.9524 0.27683,-0.2308 -0.0777,-0.51977 -0.23306,-0.70125 -0.43157,-0.4316 -0.83203,-0.91444 -1.30431,-1.29242 -0.0141,-0.0134 -0.0295,-0.019 -0.045,-0.0202 z"
           id="path164056" />
      </g>
      <path
         style="fill:#fde385;fill-opacity:1;stroke:none;stroke-width:0.264583px;stroke-linecap:butt;stroke-linejoin:miter;stroke-opacity:1"
         d="m 669.39724,96.367584 1.02899,-1.957235 15.43482,-0.460526 1.59025,2.993416 -2.61924,6.332231 -5.42557,0.80592 -3.92887,0.34539 -4.20949,-2.76315 z"
         id="path163992" />
      <path
         style="fill:#fde385;fill-opacity:1;stroke:#fcc917;stroke-width:0.79375;stroke-linecap:square;stroke-linejoin:miter;stroke-miterlimit:4;stroke-dasharray:none;stroke-dashoffset:0;stroke-opacity:1"
         d="m 668.72873,96.705238 c 1.29471,-1.620631 2.29404,-2.396806 3.34528,-2.88108 l 0.51322,0.669933 m 14.83217,1.608651 c -1.2947,-1.620635 -2.15245,-2.246185 -3.06212,-2.579834 l -0.52526,0.706599"
         id="path163994" />
      <path
         style="fill:#cccccc;fill-opacity:1;stroke:none;stroke-width:0.79375;stroke-linecap:square;stroke-linejoin:miter;stroke-miterlimit:4;stroke-dasharray:none;stroke-dashoffset:0;stroke-opacity:1"
         d="m 677.98853,116.49938 c -0.34914,-0.002 -0.69863,0.044 -1.03586,0.14075 -2.10393,0.68594 -2.93218,1.30639 -2.55731,3.44971 0.43873,2.20092 2.18697,4.04843 3.96734,3.90808 1.78019,0.13991 3.5281,-1.70739 3.96677,-3.90808 0.37487,-2.14332 -0.45337,-2.76377 -2.5573,-3.44971 -0.33722,-0.0967 -0.68672,-0.14308 -1.03586,-0.14075 -0.12482,0.001 -0.24946,0.0116 -0.37361,0.0253 -0.12433,-0.014 -0.24916,-0.0242 -0.37417,-0.0253 z"
         id="path163996" />
      <path
         style="fill:#808080;fill-opacity:1;stroke:#000000;stroke-width:0.79375;stroke-linecap:square;stroke-linejoin:miter;stroke-miterlimit:4;stroke-dasharray:none;stroke-dashoffset:0;stroke-opacity:1"
         d="m 682.08117,113.78901 c 0.91986,0.9492 1.75512,1.98035 2.49266,3.07724 0.68351,1.01654 1.29935,2.144 1.34344,3.36817 0.0249,0.69116 -0.135,1.38133 -0.0846,2.07111 0.0252,0.34488 0.10516,0.69066 0.27705,0.99072 0.17189,0.30006 0.44194,0.55171 0.77047,0.65966 0.22103,0.0726 0.46179,0.0784 0.68921,0.0293 0.22741,-0.0491 0.44164,-0.15193 0.6304,-0.28796 0.37751,-0.27205 0.64758,-0.66865 0.86173,-1.08176 0.52388,-1.01062 0.75221,-2.15202 0.83092,-3.28763 0.0787,-1.13561 0.0138,-2.27549 -0.0167,-3.41341 -0.0193,-0.72156 -0.0232,-1.45577 0.17755,-2.14911 0.23128,-0.79874 0.71878,-1.49341 1.15186,-2.20328 0.43309,-0.70988 0.82802,-1.48546 0.83801,-2.31695 0.007,-0.57479 -0.1711,-1.13308 -0.31075,-1.69069 -0.13965,-0.55761 -0.24144,-1.14927 -0.0841,-1.70214 0.10561,-0.371 0.32101,-0.69904 0.51086,-1.03483 0.95093,-1.68188 1.29523,-3.68638 1.02955,-5.600118 -0.26569,-1.91374 -1.12956,-3.730164 -2.39332,-5.191636 -0.0591,-0.06838 -0.11962,-0.136493 -0.19144,-0.191396 -0.0718,-0.0549 -0.15638,-0.09637 -0.24644,-0.104263 -0.0833,-0.0073 -0.16782,0.01471 -0.24093,0.05531 -0.0731,0.0406 -0.13525,0.09915 -0.18648,0.165253 -0.10245,0.132201 -0.16121,0.291958 -0.22941,0.444673 -0.34883,0.781052 -0.96388,1.408741 -1.59109,1.990395 -0.62722,0.581655 -1.28716,1.144393 -1.76597,1.853243 -0.51192,0.757873 -0.79212,1.647778 -0.99797,2.538874 -0.20585,0.8911 -0.34453,1.79879 -0.60719,2.67483 -0.0931,0.31033 -0.2015,0.61605 -0.32481,0.91564 -0.83771,-0.13943 -1.68628,-0.21352 -2.53548,-0.22138 -0.92151,-0.009 -1.84374,0.0609 -2.75357,0.20747 0.83081,0.40874 1.56474,1.01281 2.12562,1.74951 0.68638,0.90154 1.10965,2.00099 1.20503,3.13006 z"
         id="path163998" />
      <path
         style="fill:none;fill-opacity:1;stroke:#000000;stroke-width:0.79375;stroke-linecap:butt;stroke-linejoin:miter;stroke-miterlimit:4;stroke-dasharray:none;stroke-opacity:1"
         d="m 665.98766,127.54111 c 1.45053,0.14024 2.01604,-0.91633 2.5656,-1.36858 1.09913,-0.90452 0.1113,-1.91988 0.23409,-2.39785"
         id="path164002" />
      <path
         id="path164004"
         d="m 656.79097,107.36883 6.8301,1.80907"
         style="fill:none;fill-opacity:1;stroke:#ffffff;stroke-width:0.79375;stroke-linecap:butt;stroke-linejoin:miter;stroke-miterlimit:4;stroke-dasharray:none;stroke-opacity:1" />
      <path
         id="path164006"
         d="m 674.60667,113.78901 c -0.91986,0.9492 -1.75512,1.98035 -2.49266,3.07724 -0.68351,1.01654 -1.29935,2.14401 -1.34344,3.36818 -0.0249,0.69116 0.135,1.38133 0.0846,2.0711 -0.0252,0.34489 -0.10516,0.69066 -0.27704,0.99072 -0.17189,0.30007 -0.44195,0.55171 -0.77047,0.65966 -0.22103,0.0726 -0.46179,0.0784 -0.68921,0.0293 -0.22741,-0.0491 -0.44164,-0.15193 -0.6304,-0.28796 -0.37751,-0.27205 -0.64758,-0.66865 -0.86173,-1.08176 -0.52388,-1.01062 -0.75221,-2.15202 -0.83092,-3.28763 -0.0787,-1.13561 -0.0138,-2.27549 0.0167,-3.41341 0.0193,-0.72156 0.0232,-1.45577 -0.17755,-2.14911 -0.23128,-0.79874 -0.71878,-1.49341 -1.15186,-2.20328 -0.43309,-0.70988 -0.82802,-1.48546 -0.83801,-2.31695 -0.007,-0.57479 0.1711,-1.13308 0.31075,-1.69069 0.13965,-0.55761 0.24144,-1.14927 0.0841,-1.70214 -0.10561,-0.371 -0.32101,-0.69904 -0.51086,-1.03483 -0.95093,-1.68188 -1.29523,-3.68638 -1.02955,-5.600118 0.26569,-1.91374 1.12956,-3.730164 2.39332,-5.191636 0.0591,-0.06838 0.11962,-0.136493 0.19144,-0.191396 0.0718,-0.0549 0.15638,-0.09637 0.24644,-0.104263 0.0833,-0.0073 0.16782,0.01471 0.24093,0.05531 0.0731,0.0406 0.13525,0.09915 0.18648,0.165253 0.10245,0.132201 0.16121,0.291958 0.22941,0.444673 0.34883,0.781052 0.96388,1.408741 1.59109,1.990395 0.62722,0.581655 1.28716,1.144393 1.76597,1.853243 0.51192,0.757873 0.79212,1.647778 0.99797,2.538874 0.20585,0.8911 0.34453,1.79879 0.60719,2.67483 0.093,0.31033 0.2015,0.61605 0.32481,0.91564 0.83771,-0.13943 1.68628,-0.21352 2.53548,-0.22138 0.92151,-0.009 1.84374,0.0609 2.75357,0.20747 -0.83081,0.40874 -1.56474,1.01281 -2.12562,1.74951 -0.68638,0.90154 -1.10965,2.00099 -1.20503,3.13006 z"
         style="fill:#808080;fill-opacity:1;stroke:#000000;stroke-width:0.79375;stroke-linecap:square;stroke-linejoin:miter;stroke-miterlimit:4;stroke-dasharray:none;stroke-dashoffset:0;stroke-opacity:1" />
      <ellipse
         ry="2.6315403"
         rx="2.5586886"
         cy="112.94144"
         cx="-685.8017"
         id="ellipse164008"
         style="fill:#000000;fill-opacity:1;stroke:#ffcc00;stroke-width:0.79375;stroke-linecap:square;stroke-linejoin:miter;stroke-miterlimit:4;stroke-dasharray:none;stroke-dashoffset:0;stroke-opacity:1"
         transform="scale(-1,1)" />
      <path
         id="path164010"
         d="m 688.09564,109.52895 c -0.51006,-0.66669 -1.32419,-1.09079 -2.16284,-1.12668 -0.79156,-0.0339 -1.5919,0.27667 -2.15345,0.83557"
         style="fill:none;fill-opacity:1;stroke:#000000;stroke-width:0.79375;stroke-linecap:square;stroke-linejoin:miter;stroke-miterlimit:4;stroke-dasharray:none;stroke-dashoffset:0;stroke-opacity:1" />
      <path
         style="fill:none;fill-opacity:1;stroke:#000000;stroke-width:0.79375;stroke-linecap:square;stroke-linejoin:miter;stroke-miterlimit:4;stroke-dasharray:none;stroke-dashoffset:0;stroke-opacity:1"
         d="m 688.35038,105.60417 c -0.34291,-0.021 -0.67986,-0.13271 -0.96738,-0.32076 -0.28752,-0.18805 -0.52493,-0.45197 -0.68159,-0.75773 -0.22615,-0.44137 -0.27968,-0.95782 -0.21342,-1.4493 0.0663,-0.49149 0.24657,-0.96132 0.46711,-1.40551 0.52564,-1.05872 1.29001,-1.998073 2.21979,-2.727944"
         id="path164012" />
      <path
         id="path164014"
         d="m 678.17919,117.2974 0.0935,1.83339 c 0.019,0.37335 0.03,0.75093 -0.0438,1.11741 -0.0738,0.36648 -0.23099,0.71566 -0.4563,1.01397 -0.22531,0.29831 -0.51338,0.54373 -0.81663,0.76235 -0.30325,0.21862 -0.62323,0.41457 -0.91332,0.65037 -0.3976,0.3232 -0.73099,0.71664 -1.07802,1.09362 -0.34704,0.37698 -0.71589,0.74422 -1.16161,0.99696 -0.58472,0.33156 -1.28881,0.44708 -1.94883,0.31976 -0.66001,-0.12733 -1.2706,-0.49647 -1.69003,-1.02174"
         style="fill:none;fill-opacity:1;stroke:#000000;stroke-width:0.79375;stroke-linecap:square;stroke-linejoin:miter;stroke-miterlimit:4;stroke-dasharray:none;stroke-dashoffset:0;stroke-opacity:1" />
      <path
         d="m 680.97887,116.32503 c -0.20725,-0.54651 -0.20725,-1.63953 -0.82897,-1.63953 -0.62171,0 -1.19648,-0.40988 -1.808,-0.40988 -0.61152,0 -1.18629,0.40988 -1.80801,0.40988 -0.62172,0 -0.62172,1.09302 -0.82896,1.63953 -0.20725,0.54651 2.63697,2.32265 2.63697,2.32265 0,0 2.84421,-1.77614 2.63697,-2.32265 z"
         style="fill:#808080;fill-opacity:1;stroke:#000000;stroke-width:0.79375;stroke-linecap:square;stroke-linejoin:miter;stroke-miterlimit:4;stroke-dasharray:none;stroke-dashoffset:0;stroke-opacity:1"
         id="path164016" />
      <ellipse
         style="fill:#000000;fill-opacity:1;stroke:#ffcc00;stroke-width:0.79375;stroke-linecap:square;stroke-linejoin:miter;stroke-miterlimit:4;stroke-dasharray:none;stroke-dashoffset:0;stroke-opacity:1"
         id="ellipse164018"
         cx="670.97522"
         cy="112.94144"
         rx="2.5586886"
         ry="2.6315403" />
      <ellipse
         ry="1.3111838"
         rx="1.2582382"
         cy="112.2009"
         cx="670.12122"
         id="ellipse164020"
         style="fill:#ffffff;fill-opacity:1;stroke:none;stroke-width:0.79375;stroke-linecap:square;stroke-linejoin:miter;stroke-miterlimit:4;stroke-dasharray:none;stroke-dashoffset:0;stroke-opacity:1" />
      <path
         style="fill:none;fill-opacity:1;stroke:#000000;stroke-width:0.79375;stroke-linecap:square;stroke-linejoin:miter;stroke-miterlimit:4;stroke-dasharray:none;stroke-dashoffset:0;stroke-opacity:1"
         d="m 668.68054,109.52895 c 0.51006,-0.66669 1.32419,-1.09079 2.16284,-1.12668 0.79156,-0.0339 1.5919,0.27667 2.15345,0.83557"
         id="path164022" />
      <path
         id="path164024"
         d="m 667.89668,105.60417 c 0.34291,-0.021 0.67986,-0.13271 0.96738,-0.32076 0.28752,-0.18805 0.52493,-0.45197 0.68159,-0.75773 0.22615,-0.44137 0.27968,-0.95782 0.21342,-1.4493 -0.0663,-0.49149 -0.24657,-0.96132 -0.46711,-1.40551 -0.52564,-1.05872 -1.29001,-1.998073 -2.21979,-2.727944"
         style="fill:none;fill-opacity:1;stroke:#000000;stroke-width:0.79375;stroke-linecap:square;stroke-linejoin:miter;stroke-miterlimit:4;stroke-dasharray:none;stroke-dashoffset:0;stroke-opacity:1" />
      <path
         id="path164026"
         d="m 678.45158,127.93405 v 3.63912"
         style="fill:none;fill-opacity:1;stroke:#000000;stroke-width:0.79375;stroke-linecap:square;stroke-linejoin:miter;stroke-miterlimit:4;stroke-dasharray:none;stroke-dashoffset:0;stroke-opacity:1" />
      <path
         id="path164028"
         d="m 671.55002,100.46623 c 0,0 -2.51266,1.87089 -3.38243,2.15152 -0.86976,0.28063 -4.44548,0.74835 -4.44548,0.74835 l 0.0966,2.80633 c 0,0 1.54625,0.28064 3.28579,-0.0935 1.73954,-0.37418 14.20621,-0.46772 14.20621,-0.46772"
         style="fill:#fde385;fill-opacity:1;stroke:#fcc917;stroke-width:0.79375;stroke-linecap:square;stroke-linejoin:miter;stroke-miterlimit:4;stroke-dasharray:none;stroke-dashoffset:0;stroke-opacity:1" />
      <path
         style="fill:none;fill-opacity:1;stroke:#ffffff;stroke-width:0.79375;stroke-linecap:butt;stroke-linejoin:miter;stroke-miterlimit:4;stroke-dasharray:none;stroke-opacity:1"
         d="m 700.13359,107.36883 -6.8301,1.80907"
         id="path164030" />
      <path
         d="m 682.85977,124.87214 c -2.21493,1.35318 -4.81675,1.26558 -4.4536,1.26558 0.36315,0 -2.23867,0.0876 -4.4536,-1.26558"
         style="fill:none;fill-opacity:1;stroke:#000000;stroke-width:0.79375;stroke-linecap:square;stroke-linejoin:miter;stroke-miterlimit:4;stroke-dasharray:none;stroke-dashoffset:0;stroke-opacity:1"
         id="path164032" />
      <path
         id="path164034"
         d="m 690.79253,127.7282 c -1.45053,0.14024 -2.01604,-0.91633 -2.5656,-1.36858 -1.09913,-0.90452 -0.1113,-1.91988 -0.23409,-2.39785"
         style="fill:none;fill-opacity:1;stroke:#000000;stroke-width:0.79375;stroke-linecap:butt;stroke-linejoin:miter;stroke-miterlimit:4;stroke-dasharray:none;stroke-opacity:1" />
      <path
         id="path164036"
         d="m 660.77576,124.86583 4.67858,-3.21224"
         style="fill:none;fill-opacity:1;stroke:#ffffff;stroke-width:0.79375;stroke-linecap:butt;stroke-linejoin:miter;stroke-miterlimit:4;stroke-dasharray:none;stroke-opacity:1" />
      <ellipse
         style="fill:#ffffff;fill-opacity:1;stroke:none;stroke-width:0.79375;stroke-linecap:square;stroke-linejoin:miter;stroke-miterlimit:4;stroke-dasharray:none;stroke-dashoffset:0;stroke-opacity:1"
         id="ellipse164038"
         cx="686.58099"
         cy="112.2009"
         rx="1.2582382"
         ry="1.3111838" />
      <path
         id="path164040"
         d="m 677.59167,116.05505 -0.52917,1.25677"
         style="fill:none;fill-opacity:1;stroke:#000000;stroke-width:0.79375;stroke-linecap:square;stroke-linejoin:miter;stroke-miterlimit:4;stroke-dasharray:none;stroke-dashoffset:0;stroke-opacity:1" />
      <path
         style="fill:none;fill-opacity:1;stroke:#000000;stroke-width:0.79375;stroke-linecap:square;stroke-linejoin:miter;stroke-miterlimit:4;stroke-dasharray:none;stroke-dashoffset:0;stroke-opacity:1"
         d="m 679.17915,116.05505 0.52917,1.25677"
         id="path164042" />
      <path
         style="fill:none;fill-opacity:1;stroke:#ffffff;stroke-width:0.79375;stroke-linecap:butt;stroke-linejoin:miter;stroke-miterlimit:4;stroke-dasharray:none;stroke-opacity:1"
         d="m 695.61685,124.86583 -4.67858,-3.21224"
         id="path164044" />
      <path
         style="fill:#fde385;fill-opacity:1;stroke:#fcc917;stroke-width:0.79375;stroke-linecap:square;stroke-linejoin:miter;stroke-miterlimit:4;stroke-dasharray:none;stroke-dashoffset:0;stroke-opacity:1"
         d="m 685.11528,100.46623 c 0,0 2.51266,1.87089 3.38243,2.15152 0.86976,0.28063 4.44548,0.74835 4.44548,0.74835 l -0.0966,2.80633 c 0,0 -1.54625,0.28064 -3.28579,-0.0935 -1.73954,-0.37418 -14.20621,-0.46772 -14.20621,-0.46772"
         id="path164046" />
      <path
         id="path164048"
         d="m 685.05575,107.26614 5.96227,-0.7956 -9.18023,-1.59078 -8.88926,0.0497 -6.9128,1.24282 3.69017,1.09388 7.66492,0.19883 z"
         style="fill:#fde385;fill-opacity:1;stroke:#fcc917;stroke-width:0.79375;stroke-linecap:square;stroke-linejoin:miter;stroke-miterlimit:4;stroke-dasharray:none;stroke-dashoffset:0;stroke-opacity:1" />
      <path
         id="path164050"
         d="m 676.81873,99.653466 -2.18282,-0.0661 -1.91823,-2.38125 0.0661,-2.910414 3.16158,-0.842507 c 1.69501,-0.584128 3.19616,-0.406767 4.77192,0 2.72967,0.795783 3.24708,0.842507 3.24708,0.842507 l 0.0661,2.910414 -1.91823,2.38125 -2.18282,0.0661"
         style="fill:#fcda5d;fill-opacity:1;fill-rule:evenodd;stroke:#fcc917;stroke-width:0.79375;stroke-linecap:butt;stroke-linejoin:miter;stroke-miterlimit:4;stroke-dasharray:none;stroke-opacity:1" />
      <path
         style="fill:#fde385;fill-opacity:1;fill-rule:evenodd;stroke:#fcc917;stroke-width:0.79375;stroke-linecap:butt;stroke-linejoin:miter;stroke-miterlimit:4;stroke-dasharray:none;stroke-opacity:1"
         d="m 681.51475,97.860416 0.46611,-5.424686 -3.46306,-0.577161 -3.46269,0.577161 0.46575,5.424686 2.99695,3.704164 z"
         id="path164052" />
      <path
         style="fill:none;fill-opacity:1;stroke:#000000;stroke-width:0.79375;stroke-linecap:square;stroke-linejoin:miter;stroke-miterlimit:4;stroke-dasharray:none;stroke-dashoffset:0;stroke-opacity:1"
         d="m 678.57794,117.2974 -0.0935,1.83339 c -0.019,0.37335 -0.03,0.75093 0.0438,1.11741 0.0738,0.36648 0.23099,0.71566 0.4563,1.01397 0.22531,0.29831 0.51338,0.54373 0.81663,0.76235 0.30325,0.21862 0.62323,0.41457 0.91332,0.65037 0.3976,0.3232 0.73099,0.71664 1.07802,1.09362 0.34704,0.37698 0.71589,0.74422 1.16161,0.99696 0.58472,0.33156 1.28881,0.44708 1.94883,0.31976 0.66001,-0.12733 1.2706,-0.49647 1.69003,-1.02174"
         id="path164000" />
    </g>
    <rect
       style="opacity:1;fill:none;fill-opacity:1;stroke:#dedede;stroke-width:0.79375;stroke-linecap:round;stroke-linejoin:round;stroke-miterlimit:4;stroke-dasharray:none;stroke-opacity:1"
       id="rect164274"
       width="266.43546"
       height="119.89413"
       x="620.00122"
       y="79.601753"
       ry="0.2606394"
       transform="scale(1,-1)" />
  </g>
</svg>
