<?xml version="1.0" encoding="UTF-8" standalone="no"?>
<!-- Generator: Adobe Illustrator 15.0.0, SVG Export Plug-In . SVG Version: 6.00 Build 0)  -->

<svg
   version="1.1"
   id="Layer_1"
   x="0px"
   y="0px"
   width="457.81003"
   height="514.11761"
   viewBox="0 0 457.81003 514.11762"
   enable-background="new 0 0 2034.203 552.055"
   xml:space="preserve"
   sodipodi:docname="tileserver.svg"
   inkscape:version="1.4.2 (ebf0e940d0, 2025-05-08)"
   xmlns:inkscape="http://www.inkscape.org/namespaces/inkscape"
   xmlns:sodipodi="http://sodipodi.sourceforge.net/DTD/sodipodi-0.dtd"
   xmlns="http://www.w3.org/2000/svg"
   xmlns:svg="http://www.w3.org/2000/svg"><defs
   id="defs22" /><sodipodi:namedview
   id="namedview22"
   pagecolor="#ffffff"
   bordercolor="#000000"
   borderopacity="0.25"
   inkscape:showpageshadow="2"
   inkscape:pageopacity="0.0"
   inkscape:pagecheckerboard="0"
   inkscape:deskcolor="#d1d1d1"
   inkscape:zoom="1.183756"
   inkscape:cx="408.44566"
   inkscape:cy="258.07683"
   inkscape:window-width="2560"
   inkscape:window-height="1364"
   inkscape:window-x="0"
   inkscape:window-y="0"
   inkscape:window-maximized="1"
   inkscape:current-layer="g22" />
<g
   id="g1"
   transform="translate(-18.410497,-17.937614)">
	<path
   fill="#3a1888"
   d="M 3.604,-242.717"
   id="path1" />
</g>
<g
   id="g22"
   transform="translate(-18.410497,-17.937614)">
	<g
   id="g9">
		<path
   fill="#3a1888"
   d="m 152.645,436.647 c 25.674,25.668 94.015,95.335 93.983,95.406 -0.249,0.454 67.892,-67.963 95.032,-95.087 l -94.67,-94.665 z"
   id="path2" />
		<path
   fill="#03a1c4"
   d="m 246.99,342.301 94.67,94.665 c 0.141,-0.157 0.314,-0.336 0.466,-0.477 l 94.578,-94.583 -94.66,-94.662 z"
   id="path3" />
		<path
   fill="#05d0df"
   d="m 436.704,341.907 0.243,-0.244 c 52.317,-52.312 52.36,-137.096 0.157,-189.473 l -95.06,95.055 z"
   id="path4" />
		<path
   fill="#761fe8"
   d="m 151.931,247.245 -94.329,94.326 c 0.027,0.032 0.043,0.064 0.076,0.092 l 94.811,94.827 c 0.054,0.049 0.108,0.098 0.157,0.157 l 94.345,-94.346 z"
   id="path5" />
		<path
   fill="#ffaa01"
   d="m 246.99,152.184 95.054,95.061 95.06,-95.055 c -0.076,-0.054 -0.103,-0.108 -0.157,-0.162 L 342.126,57.212 c -0.022,-0.027 -0.054,-0.054 -0.082,-0.081 z"
   id="path6" />
		<path
   fill="#f1175d"
   d="M 57.201,152.514 C 5.349,204.891 5.479,289.362 57.601,341.571 L 151.93,247.245 Z"
   id="path7" />
		<path
   fill="#fb3a1b"
   d="M 246.99,152.184 152.255,57.45 57.677,152.028 c -0.163,0.162 -0.309,0.336 -0.476,0.486 l 94.729,94.73 z"
   id="path8" />
		<path
   fill="#fbc935"
   d="M 342.044,57.13 C 289.663,4.846 204.832,4.874 152.488,57.211 l -0.233,0.238 94.735,94.734 z"
   id="path9" />
	</g>
	
	
</g>
</svg>
